<?xml version="1.0" encoding="UTF-8"?>
<svg width="20px" height="20px" viewBox="0 0 20 20" version="1.1" xmlns="http://www.w3.org/2000/svg" xmlns:xlink="http://www.w3.org/1999/xlink">
    <!-- Generator: Sketch 62 (91390) - https://sketch.com -->
    <title>NO_inactive2</title>
    <desc>Created with Sketch.</desc>
    <g id="NO_inactive2" stroke="none" stroke-width="1" fill="none" fill-rule="evenodd">
        <g id="NO">
            <circle id="椭圆形" fill="#D6DDEA" cx="10" cy="10" r="10"></circle>
            <path d="M12.6806641,15.0488281 L12.6806641,13.6201172 L8.87304688,13.6201172 L12.0791016,9.60058594 C12.4801432,9.09016927 12.6806641,8.50683594 12.6806641,7.85058594 C12.6715495,7.03027344 12.3958333,6.35351562 11.8535156,5.8203125 C11.3203125,5.28255208 10.6253255,5.00911458 9.76855469,5 C9.00292969,5.00911458 8.35807292,5.27799479 7.83398438,5.80664062 C7.31445312,6.34895833 7.03645833,7.03483073 7,7.86425781 L8.421875,7.86425781 C8.47200521,7.40852865 8.63151042,7.05533854 8.90039062,6.8046875 C9.16015625,6.55403646 9.4860026,6.42871094 9.87792969,6.42871094 C10.319987,6.43782552 10.6617839,6.58138021 10.9033203,6.859375 C11.1357422,7.13736979 11.2519531,7.46321615 11.2519531,7.83691406 C11.2519531,7.9781901 11.233724,8.12858073 11.1972656,8.28808594 C11.1425781,8.45670573 11.0400391,8.6389974 10.8896484,8.83496094 L7,13.7021484 L7,15.0488281 L12.6806641,15.0488281 Z" id="2" fill="#6E85B6" fill-rule="nonzero"></path>
        </g>
    </g>
</svg>