<?xml version="1.0" encoding="UTF-8"?>
<svg width="20px" height="20px" viewBox="0 0 20 20" version="1.1" xmlns="http://www.w3.org/2000/svg" xmlns:xlink="http://www.w3.org/1999/xlink">
    <!-- Generator: Sketch 62 (91390) - https://sketch.com -->
    <title>NO_active9</title>
    <desc>Created with Sketch.</desc>
    <g id="NO_active9" stroke="none" stroke-width="1" fill="none" fill-rule="evenodd">
        <g id="NO" fill="#FFFFFF">
            <circle id="椭圆形" stroke-opacity="0.4" stroke="#FFFFFF" fill-opacity="0.6" cx="10" cy="10" r="9.5"></circle>
            <path d="M10.2480469,15.0240162 C10.6809896,14.1490162 11.0729167,13.3560475 11.4238281,12.64511 C11.5742188,12.3443287 11.7211914,12.0446868 11.8647461,11.7461842 C12.0083008,11.4476816 12.1404622,11.1765227 12.2612305,10.9327076 C12.3819987,10.6888925 12.4822591,10.4826751 12.5620117,10.3140553 C12.6417643,10.1454355 12.6907552,10.0360605 12.7089844,9.98593027 C12.781901,9.8036386 12.8457031,9.63501881 12.9003906,9.48007089 C12.9550781,9.32512297 13.004069,9.16789641 13.0473633,9.0083912 C13.0906576,8.848886 13.1282552,8.68140553 13.1601563,8.5059498 C13.1920573,8.33049407 13.2216797,8.13111256 13.2490234,7.90780527 C13.2672526,7.75741464 13.2626953,7.5762623 13.2353516,7.36434823 C13.2080078,7.15243417 13.152181,6.93368417 13.0678711,6.70809823 C12.9835612,6.4825123 12.8662109,6.26034433 12.7158203,6.04159433 C12.5654297,5.82284433 12.3763021,5.63143808 12.1484375,5.46737558 C11.9205729,5.30331308 11.6482747,5.17798756 11.331543,5.09139902 C11.0148112,5.00481047 10.6490885,4.97974537 10.234375,5.0162037 C9.83789063,5.05266204 9.49495443,5.13697193 9.20556641,5.26913339 C8.91617839,5.40129485 8.67236328,5.55852141 8.47412109,5.74081308 C8.27587891,5.92310475 8.11523438,6.11792896 7.9921875,6.32528573 C7.86914063,6.53264251 7.7734375,6.72746672 7.70507813,6.90975839 C7.63671875,7.09205006 7.59000651,7.2481373 7.56494141,7.37802011 C7.5398763,7.50790292 7.5250651,7.58879485 7.52050781,7.62069589 C7.51139323,7.68449797 7.50569661,7.76197193 7.50341797,7.85311777 C7.50113932,7.9442636 7.5,8.03427011 7.5,8.1231373 C7.5,8.21200448 7.50113932,8.29289641 7.50341797,8.36581308 C7.50569661,8.43872975 7.50683594,8.48885995 7.50683594,8.5162037 C7.50683594,8.60279225 7.52164714,8.72242115 7.55126953,8.87509042 C7.58089193,9.02775969 7.62874349,9.19182219 7.69482422,9.36727792 C7.76090495,9.54273365 7.84863281,9.72274667 7.95800781,9.90731698 C8.06738281,10.0918873 8.20410156,10.2593678 8.36816406,10.4097584 C8.53222656,10.560149 8.72705078,10.6854745 8.95263672,10.785735 C9.17822266,10.8859954 9.44140625,10.9406829 9.7421875,10.9497975 C9.9609375,10.958912 10.1534831,10.9554941 10.3198242,10.9395435 C10.4861654,10.923593 10.6354167,10.8768808 10.7675781,10.7994068 C10.6809896,10.9497975 10.5681966,11.1571542 10.4291992,11.4214771 C10.2902018,11.6858001 10.1409505,11.9751881 9.98144531,12.2896412 C9.8219401,12.6040943 9.66015625,12.9231047 9.49609375,13.2466725 C9.33203125,13.5702402 9.18391927,13.8641855 9.05175781,14.1285084 C8.91959635,14.3928313 8.8125,14.6081633 8.73046875,14.7745045 C8.6484375,14.9408456 8.60970052,15.0240162 8.61425781,15.0240162 L8.61425781,15.0240162 L10.2480469,15.0240162 Z M10.4638062,9.71356088 L10.3369141,9.71249277 C9.9905599,9.6942636 9.72167969,9.61792896 9.53027344,9.48348886 C9.33886719,9.34904876 9.19873047,9.1872649 9.10986328,8.9981373 C9.02099609,8.80900969 8.96744792,8.60734954 8.94921875,8.39315683 C8.93098958,8.17896412 8.921875,7.98300058 8.921875,7.8052662 C8.921875,7.7505787 8.94238281,7.65031829 8.98339844,7.50448495 C9.02441406,7.35865162 9.09733073,7.208261 9.20214844,7.05331308 C9.30696615,6.89836516 9.44938151,6.75708912 9.62939453,6.62948495 C9.80940755,6.50188079 10.0406901,6.43124277 10.3232422,6.41757089 C10.5784505,6.40389902 10.7915039,6.42554615 10.9624023,6.4825123 C11.1333008,6.53947844 11.2734375,6.61809172 11.3828125,6.71835214 C11.4921875,6.81861256 11.5764974,6.93596282 11.6357422,7.07040292 C11.694987,7.20484303 11.7371419,7.34497975 11.762207,7.49081308 C11.7872721,7.63664641 11.800944,7.7802011 11.8032227,7.92147714 C11.8055013,8.06275318 11.8089193,8.19035735 11.8134766,8.30428964 C11.8134766,8.35897714 11.8020833,8.43189381 11.7792969,8.52303964 C11.7565104,8.61418547 11.7189128,8.71330657 11.6665039,8.82040292 C11.6140951,8.92749928 11.5480143,9.03573495 11.4682617,9.14510995 C11.3885091,9.25448495 11.2939453,9.35246672 11.1845703,9.43905527 C11.0751953,9.52564381 10.9498698,9.59514251 10.8085938,9.64755136 C10.6673177,9.69996021 10.5100911,9.72160735 10.3369141,9.71249277 L10.4638062,9.71356088 Z" id="9" fill-rule="nonzero"></path>
        </g>
    </g>
</svg>