<?xml version="1.0" encoding="UTF-8"?>
<svg width="16px" height="16px" viewBox="0 0 16 16" version="1.1" xmlns="http://www.w3.org/2000/svg" xmlns:xlink="http://www.w3.org/1999/xlink">
    <!-- Generator: Sketch 62 (91390) - https://sketch.com -->
    <title>iso定制工具-16px</title>
    <desc>Created with Sketch.</desc>
    <defs>
        <linearGradient x1="50%" y1="0%" x2="50%" y2="100%" id="linearGradient-1">
            <stop stop-color="#4EFFD8" offset="0%"></stop>
            <stop stop-color="#00A29F" offset="100%"></stop>
        </linearGradient>
        <filter x="-72.2%" y="-72.2%" width="244.4%" height="244.4%" filterUnits="objectBoundingBox" id="filter-2">
            <feOffset dx="0" dy="1" in="SourceAlpha" result="shadowOffsetOuter1"></feOffset>
            <feGaussianBlur stdDeviation="1" in="shadowOffsetOuter1" result="shadowBlurOuter1"></feGaussianBlur>
            <feColorMatrix values="0 0 0 0 0   0 0 0 0 0.4549649   0 0 0 0 0.409478353  0 0 0 0.3 0" type="matrix" in="shadowBlurOuter1" result="shadowMatrixOuter1"></feColorMatrix>
            <feMerge>
                <feMergeNode in="shadowMatrixOuter1"></feMergeNode>
                <feMergeNode in="SourceGraphic"></feMergeNode>
            </feMerge>
        </filter>
        <linearGradient x1="50%" y1="0%" x2="50%" y2="100%" id="linearGradient-3">
            <stop stop-color="#FFFFFF" offset="0%"></stop>
            <stop stop-color="#CBFEF3" offset="100%"></stop>
        </linearGradient>
        <linearGradient x1="50%" y1="0%" x2="50%" y2="100%" id="linearGradient-4">
            <stop stop-color="#FFFFFF" offset="0%"></stop>
            <stop stop-color="#CBFEF3" offset="100%"></stop>
        </linearGradient>
    </defs>
    <g id="iso定制工具-16px" stroke="none" stroke-width="1" fill="none" fill-rule="evenodd">
        <g id="ISO镜像定制工具-256px" transform="translate(1.000000, 1.000000)" fill-rule="nonzero">
            <circle id="Oval" fill="url(#linearGradient-1)" cx="7" cy="7" r="7"></circle>
            <g id="编组" filter="url(#filter-2)" transform="translate(3.000000, 3.000000)">
                <path d="M4.50130772,0 C6.98658909,0 9.00130772,2.01471863 9.00130772,4.5 C9.00130772,6.98528137 6.98658909,9 4.50130772,9 C4.3324051,9 4.16567588,8.99069458 4.00160476,8.97256844 L4.00142241,7.96475873 C4.16427084,7.98798409 4.33073219,8 4.5,8 C6.43299662,8 8,6.43299662 8,4.5 C8,2.56700338 6.43299662,1 4.5,1 C4.33073219,1 4.16427084,1.01201591 4.00142241,1.03524127 L4.00160476,0.0274315628 C4.16567588,0.00930542113 4.3324051,0 4.50130772,0 Z M4.5,2 C5.88071187,2 7,3.11928813 7,4.5 C7,5.88071187 5.88071187,7 4.5,7 C4.3292938,7 4.16258372,6.98289062 4.00149102,6.95029313 L4.00063809,5.36658661 C4.14758048,5.45144356 4.31811976,5.5 4.5,5.5 C5.05228475,5.5 5.5,5.05228475 5.5,4.5 C5.5,3.94771525 5.05228475,3.5 4.5,3.5 C4.31811976,3.5 4.14758048,3.54855644 4.00063809,3.63341339 L4.00149102,2.04970687 C4.16258372,2.01710938 4.3292938,2 4.5,2 Z" id="形状结合" fill="url(#linearGradient-3)"></path>
                <path d="M-3.09410089e-08,0.5 C-3.09410089e-08,0.223857625 0.223857594,-9.00401779e-15 0.499999969,-8.9934284e-15 L2.99999997,-8.59139774e-15 L2.99999997,9 L0.499999969,9 C0.223857594,9 -3.09410102e-08,8.77614237 -3.09410102e-08,8.5 L-1.35878508e-09,8 L0.499999999,8 C0.776142374,8 0.999999999,7.77614237 0.999999999,7.5 C0.999999999,7.22385763 0.776142374,7 0.499999999,7 L0.499999999,7 L-1.35878508e-09,7 L-3.35439836e-08,6 L1.49999997,6 C1.77614234,6 1.99999997,5.77614237 1.99999997,5.5 C1.99999997,5.22385763 1.77614234,5 1.49999997,5 L1.49999997,5 L-3.35439836e-08,5 L-3.35439836e-08,4 L0.499999966,4 C0.776142341,4 0.999999966,3.77614237 0.999999966,3.5 C0.999999966,3.22385763 0.776142341,3 0.499999966,3 L0.499999966,3 L-3.35439836e-08,3 L-3.35439836e-08,2 L1.49999997,2 C1.77614234,2 1.99999997,1.77614237 1.99999997,1.5 C1.99999997,1.22385763 1.77614234,1 1.49999997,1 L1.49999997,1 L-3.35439836e-08,1 L-3.09410089e-08,0.5 Z" id="形状结合" fill="url(#linearGradient-4)"></path>
            </g>
        </g>
    </g>
</svg>