<?xml version="1.0" encoding="UTF-8"?>
<svg width="96px" height="96px" viewBox="0 0 96 96" version="1.1" xmlns="http://www.w3.org/2000/svg" xmlns:xlink="http://www.w3.org/1999/xlink">
    <!-- Generator: Sketch 62 (91390) - https://sketch.com -->
    <title>iso定制工具-96px</title>
    <desc>Created with Sketch.</desc>
    <defs>
        <filter x="-13.6%" y="-13.6%" width="127.3%" height="127.3%" filterUnits="objectBoundingBox" id="filter-1">
            <feOffset dx="0" dy="2" in="SourceAlpha" result="shadowOffsetOuter1"></feOffset>
            <feGaussianBlur stdDeviation="2" in="shadowOffsetOuter1" result="shadowBlurOuter1"></feGaussianBlur>
            <feComposite in="shadowBlurOuter1" in2="SourceAlpha" operator="out" result="shadowBlurOuter1"></feComposite>
            <feColorMatrix values="0 0 0 0 0   0 0 0 0 0   0 0 0 0 0  0 0 0 0.2 0" type="matrix" in="shadowBlurOuter1" result="shadowMatrixOuter1"></feColorMatrix>
            <feMerge>
                <feMergeNode in="shadowMatrixOuter1"></feMergeNode>
                <feMergeNode in="SourceGraphic"></feMergeNode>
            </feMerge>
        </filter>
        <linearGradient x1="50%" y1="0%" x2="50%" y2="100%" id="linearGradient-2">
            <stop stop-color="#4EFFD8" offset="0%"></stop>
            <stop stop-color="#00A29F" offset="100%"></stop>
        </linearGradient>
        <filter x="-42.6%" y="-35.1%" width="185.1%" height="170.2%" filterUnits="objectBoundingBox" id="filter-3">
            <feOffset dx="0" dy="1" in="SourceAlpha" result="shadowOffsetOuter1"></feOffset>
            <feGaussianBlur stdDeviation="4.5" in="shadowOffsetOuter1" result="shadowBlurOuter1"></feGaussianBlur>
            <feColorMatrix values="0 0 0 0 0   0 0 0 0 0.4549649   0 0 0 0 0.409478353  0 0 0 0.3 0" type="matrix" in="shadowBlurOuter1" result="shadowMatrixOuter1"></feColorMatrix>
            <feMerge>
                <feMergeNode in="shadowMatrixOuter1"></feMergeNode>
                <feMergeNode in="SourceGraphic"></feMergeNode>
            </feMerge>
        </filter>
        <linearGradient x1="50%" y1="0%" x2="50%" y2="100%" id="linearGradient-4">
            <stop stop-color="#FFFFFF" offset="0%"></stop>
            <stop stop-color="#CBFEF3" offset="100%"></stop>
        </linearGradient>
        <linearGradient x1="50%" y1="0%" x2="50%" y2="100%" id="linearGradient-5">
            <stop stop-color="#FFFFFF" offset="0%"></stop>
            <stop stop-color="#CBFEF3" offset="100%"></stop>
        </linearGradient>
    </defs>
    <g id="iso定制工具-96px" stroke="none" stroke-width="1" fill="none" fill-rule="evenodd">
        <g id="ISO镜像定制工具-256px" filter="url(#filter-1)" transform="translate(4.000000, 4.000000)" fill-rule="nonzero">
            <circle id="Oval" fill="url(#linearGradient-2)" cx="44" cy="44" r="44"></circle>
            <g id="编组" filter="url(#filter-3)" transform="translate(25.500000, 15.750000)">
                <path d="M19.5,1.25 C34.4116882,1.25 46.5,13.3383118 46.5,28.25 C46.5,43.1616882 34.4116882,55.25 19.5,55.25 C18.8272718,55.25 18.1602899,55.2253968 17.4999052,55.1770412 L17.499715,53.1711426 C18.1595966,53.2233826 18.8266899,53.25 19.5,53.25 C33.3071187,53.25 44.5,42.0571187 44.5,28.25 C44.5,14.4428813 33.3071187,3.25 19.5,3.25 C18.8266899,3.25 18.1595966,3.27661743 17.499715,3.32885743 L17.4999052,1.32295884 C18.1602899,1.27460318 18.8272718,1.25 19.5,1.25 Z M19.5,5.25 C32.2025492,5.25 42.5,15.5474508 42.5,28.25 C42.5,40.9525492 32.2025492,51.25 19.5,51.25 C18.8262868,51.25 18.1593392,51.2210334 17.5003346,51.1642776 L17.5005906,39.0687322 C18.1489583,39.1877912 18.8172143,39.25 19.5,39.25 C25.5751323,39.25 30.5,34.3251323 30.5,28.25 C30.5,22.1748678 25.5751323,17.25 19.5,17.25 C18.8172143,17.25 18.1489583,17.3122088 17.5005906,17.4312678 L17.5003346,5.3357224 C18.1593392,5.27896663 18.8262868,5.25 19.5,5.25 Z" id="形状结合" fill="url(#linearGradient-4)"></path>
                <path d="M0.5,2.25 C0.5,1.1454305 1.3954305,0.25 2.5,0.25 L14.5,0.25 L14.5,56.25 L2.5,56.25 C1.3954305,56.25 0.5,55.3545695 0.5,54.25 L0.5,53.25 L4.75,53.25 C5.30228475,53.25 5.75,52.8022847 5.75,52.25 C5.75,51.6977153 5.30228475,51.25 4.75,51.25 L4.75,51.25 L0.5,51.25 L0.5,47.25 L4.75,47.25 C5.30228475,47.25 5.75,46.8022847 5.75,46.25 C5.75,45.6977153 5.30228475,45.25 4.75,45.25 L4.75,45.25 L0.5,45.25 L0.5,41.25 L4.75,41.25 C5.30228475,41.25 5.75,40.8022847 5.75,40.25 C5.75,39.6977153 5.30228475,39.25 4.75,39.25 L4.75,39.25 L0.5,39.25 L0.5,35.25 L9.25,35.25 C9.80228475,35.25 10.25,34.8022847 10.25,34.25 C10.25,33.6977153 9.80228475,33.25 9.25,33.25 L9.25,33.25 L0.5,33.25 L0.5,29.25 L4.75,29.25 C5.30228475,29.25 5.75,28.8022847 5.75,28.25 C5.75,27.6977153 5.30228475,27.25 4.75,27.25 L4.75,27.25 L0.5,27.25 L0.5,23.25 L4.75,23.25 C5.30228475,23.25 5.75,22.8022847 5.75,22.25 C5.75,21.6977153 5.30228475,21.25 4.75,21.25 L4.75,21.25 L0.5,21.25 L0.5,17.25 L4.75,17.25 C5.30228475,17.25 5.75,16.8022847 5.75,16.25 C5.75,15.6977153 5.30228475,15.25 4.75,15.25 L4.75,15.25 L0.5,15.25 L0.5,11.25 L4.75,11.25 C5.30228475,11.25 5.75,10.8022847 5.75,10.25 C5.75,9.69771525 5.30228475,9.25 4.75,9.25 L4.75,9.25 L0.5,9.25 L0.5,5.25 L9.25,5.25 C9.80228475,5.25 10.25,4.80228475 10.25,4.25 C10.25,3.69771525 9.80228475,3.25 9.25,3.25 L9.25,3.25 L0.5,3.25 L0.5,2.25 Z" id="形状结合" fill="url(#linearGradient-5)"></path>
            </g>
        </g>
    </g>
</svg>