<?xml version="1.0" encoding="UTF-8"?>
<svg width="64px" height="64px" viewBox="0 0 64 64" version="1.1" xmlns="http://www.w3.org/2000/svg" xmlns:xlink="http://www.w3.org/1999/xlink">
    <!-- Generator: Sketch 62 (91390) - https://sketch.com -->
    <title>iso定制工具-64px</title>
    <desc>Created with Sketch.</desc>
    <defs>
        <filter x="-13.8%" y="-15.5%" width="127.6%" height="131.0%" filterUnits="objectBoundingBox" id="filter-1">
            <feOffset dx="0" dy="1" in="SourceAlpha" result="shadowOffsetOuter1"></feOffset>
            <feGaussianBlur stdDeviation="1.5" in="shadowOffsetOuter1" result="shadowBlurOuter1"></feGaussianBlur>
            <feComposite in="shadowBlurOuter1" in2="SourceAlpha" operator="out" result="shadowBlurOuter1"></feComposite>
            <feColorMatrix values="0 0 0 0 0   0 0 0 0 0   0 0 0 0 0  0 0 0 0.2 0" type="matrix" in="shadowBlurOuter1" result="shadowMatrixOuter1"></feColorMatrix>
            <feMerge>
                <feMergeNode in="shadowMatrixOuter1"></feMergeNode>
                <feMergeNode in="SourceGraphic"></feMergeNode>
            </feMerge>
        </filter>
        <linearGradient x1="50%" y1="0%" x2="50%" y2="100%" id="linearGradient-2">
            <stop stop-color="#4EFFD8" offset="0%"></stop>
            <stop stop-color="#00A29F" offset="100%"></stop>
        </linearGradient>
        <filter x="-43.5%" y="-34.6%" width="187.1%" height="169.2%" filterUnits="objectBoundingBox" id="filter-3">
            <feOffset dx="0" dy="1" in="SourceAlpha" result="shadowOffsetOuter1"></feOffset>
            <feGaussianBlur stdDeviation="3" in="shadowOffsetOuter1" result="shadowBlurOuter1"></feGaussianBlur>
            <feColorMatrix values="0 0 0 0 0   0 0 0 0 0.4549649   0 0 0 0 0.409478353  0 0 0 0.3 0" type="matrix" in="shadowBlurOuter1" result="shadowMatrixOuter1"></feColorMatrix>
            <feMerge>
                <feMergeNode in="shadowMatrixOuter1"></feMergeNode>
                <feMergeNode in="SourceGraphic"></feMergeNode>
            </feMerge>
        </filter>
        <linearGradient x1="50%" y1="0%" x2="50%" y2="100%" id="linearGradient-4">
            <stop stop-color="#FFFFFF" offset="0%"></stop>
            <stop stop-color="#CBFEF3" offset="100%"></stop>
        </linearGradient>
        <linearGradient x1="50%" y1="0%" x2="50%" y2="100%" id="linearGradient-5">
            <stop stop-color="#FFFFFF" offset="0%"></stop>
            <stop stop-color="#CBFEF3" offset="100%"></stop>
        </linearGradient>
    </defs>
    <g id="iso定制工具-64px" stroke="none" stroke-width="1" fill="none" fill-rule="evenodd">
        <g id="ISO镜像定制工具-256px" filter="url(#filter-1)" transform="translate(3.000000, 3.000000)" fill-rule="nonzero">
            <circle id="Oval" fill="url(#linearGradient-2)" cx="29" cy="29" r="29"></circle>
            <g id="编组" filter="url(#filter-3)" transform="translate(17.000000, 9.500000)">
                <path d="M13.0006466,1.5 C22.9417721,1.5 31.0006466,9.55887451 31.0006466,19.5 C31.0006466,29.4411255 22.9417721,37.5 13.0006466,37.5 C12.6648711,37.5 12.3312428,37.4908061 12,37.4726562 L12.0000461,36.2206069 C12.3310863,36.2401106 12.6647116,36.25 13.0006467,36.25 C22.2514162,36.25 29.7506466,28.7507695 29.7506466,19.5 C29.7506466,10.2492304 22.2514162,2.75 13.0006467,2.75 C12.6647116,2.75 12.3310863,2.75988944 12.0000461,2.77939307 L12,1.5273438 C12.3312428,1.50919394 12.6648711,1.5 13.0006466,1.5 Z M13.0006466,4 C21.5610602,4 28.5006466,10.9395864 28.5006466,19.5 C28.5006466,28.0604136 21.5610602,35 13.0006466,35 C12.6645643,35 12.3309803,34.9893037 12.0002164,34.9682328 L12.0003391,26.9338734 C12.3275748,26.9774868 12.6614816,27 13.0006466,27 C17.1427823,27 20.5006466,23.6421356 20.5006466,19.5 C20.5006466,15.3578644 17.1427823,12 13.0006466,12 C12.6614816,12 12.3275748,12.0225132 12.0003391,12.0661266 L12.0002164,4.03176717 C12.3309803,4.01069634 12.6645643,4 13.0006466,4 Z" id="形状结合" fill="url(#linearGradient-4)"></path>
                <path d="M-3.55271368e-15,2.5 C-3.55271368e-15,1.3954305 0.8954305,0.5 2,0.5 L10,0.5 L10,38.5 L2,38.5 C0.8954305,38.5 -8.8817842e-15,37.6045695 -8.8817842e-15,36.5 L-7.10542736e-15,35.5 L2.5,35.5 C3.05228475,35.5 3.5,35.0522847 3.5,34.5 C3.5,33.9477153 3.05228475,33.5 2.5,33.5 L2.5,33.5 L-7.10542736e-15,33.5 L-7.10542736e-15,30.5 L2.5,30.5 C3.05228475,30.5 3.5,30.0522847 3.5,29.5 C3.5,28.9477153 3.05228475,28.5 2.5,28.5 L2.5,28.5 L-7.10542736e-15,28.5 L1.45448098e-11,25.5 L5.5,25.5 C6.05228475,25.5 6.5,25.0522847 6.5,24.5 C6.5,23.9477153 6.05228475,23.5 5.5,23.5 L5.5,23.5 L1.45448098e-11,23.5 L-7.10542736e-15,20.5 L2.5,20.5 C3.05228475,20.5 3.5,20.0522847 3.5,19.5 C3.5,18.9477153 3.05228475,18.5 2.5,18.5 L2.5,18.5 L-7.10542736e-15,18.5 L-7.10542736e-15,15.5 L2.5,15.5 C3.05228475,15.5 3.5,15.0522847 3.5,14.5 C3.5,13.9477153 3.05228475,13.5 2.5,13.5 L2.5,13.5 L-7.10542736e-15,13.5 L7.26885219e-12,10.5 L2.5,10.5 C3.05228475,10.5 3.5,10.0522847 3.5,9.5 C3.5,8.94771525 3.05228475,8.5 2.5,8.5 L2.5,8.5 L7.26885219e-12,8.5 L1.45448098e-11,5.5 L5.5,5.5 C6.05228475,5.5 6.5,5.05228475 6.5,4.5 C6.5,3.94771525 6.05228475,3.5 5.5,3.5 L5.5,3.5 L1.45448098e-11,3.5 L-3.55271368e-15,2.5 Z" id="形状结合" fill="url(#linearGradient-5)"></path>
            </g>
        </g>
    </g>
</svg>