<?xml version="1.0" encoding="UTF-8"?>
<svg width="128px" height="128px" viewBox="0 0 128 128" version="1.1" xmlns="http://www.w3.org/2000/svg" xmlns:xlink="http://www.w3.org/1999/xlink">
    <!-- Generator: Sketch 62 (91390) - https://sketch.com -->
    <title>iso定制工具-128px</title>
    <desc>Created with Sketch.</desc>
    <defs>
        <filter x="-13.6%" y="-13.6%" width="127.1%" height="127.1%" filterUnits="objectBoundingBox" id="filter-1">
            <feOffset dx="0" dy="2" in="SourceAlpha" result="shadowOffsetOuter1"></feOffset>
            <feGaussianBlur stdDeviation="3" in="shadowOffsetOuter1" result="shadowBlurOuter1"></feGaussianBlur>
            <feComposite in="shadowBlurOuter1" in2="SourceAlpha" operator="out" result="shadowBlurOuter1"></feComposite>
            <feColorMatrix values="0 0 0 0 0   0 0 0 0 0   0 0 0 0 0  0 0 0 0.2 0" type="matrix" in="shadowBlurOuter1" result="shadowMatrixOuter1"></feColorMatrix>
            <feMerge>
                <feMergeNode in="shadowMatrixOuter1"></feMergeNode>
                <feMergeNode in="SourceGraphic"></feMergeNode>
            </feMerge>
        </filter>
        <linearGradient x1="50%" y1="0%" x2="50%" y2="100%" id="linearGradient-2">
            <stop stop-color="#4EFFD8" offset="0%"></stop>
            <stop stop-color="#00A29F" offset="100%"></stop>
        </linearGradient>
        <filter x="-41.1%" y="-33.6%" width="182.3%" height="167.1%" filterUnits="objectBoundingBox" id="filter-3">
            <feOffset dx="0" dy="1" in="SourceAlpha" result="shadowOffsetOuter1"></feOffset>
            <feGaussianBlur stdDeviation="6" in="shadowOffsetOuter1" result="shadowBlurOuter1"></feGaussianBlur>
            <feColorMatrix values="0 0 0 0 0   0 0 0 0 0.4549649   0 0 0 0 0.409478353  0 0 0 0.3 0" type="matrix" in="shadowBlurOuter1" result="shadowMatrixOuter1"></feColorMatrix>
            <feMerge>
                <feMergeNode in="shadowMatrixOuter1"></feMergeNode>
                <feMergeNode in="SourceGraphic"></feMergeNode>
            </feMerge>
        </filter>
        <linearGradient x1="50%" y1="0%" x2="50%" y2="100%" id="linearGradient-4">
            <stop stop-color="#FFFFFF" offset="0%"></stop>
            <stop stop-color="#CBFEF3" offset="100%"></stop>
        </linearGradient>
        <linearGradient x1="50%" y1="0%" x2="50%" y2="100%" id="linearGradient-5">
            <stop stop-color="#FFFFFF" offset="0%"></stop>
            <stop stop-color="#CBFEF3" offset="100%"></stop>
        </linearGradient>
    </defs>
    <g id="iso定制工具-128px" stroke="none" stroke-width="1" fill="none" fill-rule="evenodd">
        <g id="ISO镜像定制工具-256px" filter="url(#filter-1)" transform="translate(5.000000, 5.000000)" fill-rule="nonzero">
            <circle id="Oval" fill="url(#linearGradient-2)" cx="59" cy="59" r="59"></circle>
            <g id="编组" filter="url(#filter-3)" transform="translate(34.000000, 21.000000)">
                <path d="M26,2 C45.882251,2 62,18.117749 62,38 C62,57.882251 45.882251,74 26,74 C25.3286777,74 24.6616471,73.9816247 23.9993839,73.9453495 L23.9995601,71.4412587 C24.6613908,71.4802363 25.3283874,71.5 26,71.5 C44.5015391,71.5 59.5,56.5015391 59.5,38 C59.5,19.4984609 44.5015391,4.5 26,4.5 C25.3283874,4.5 24.6613908,4.51976372 23.9995601,4.5587413 L23.9993839,2.0546505 C24.6616471,2.01837534 25.3286777,2 26,2 Z M26,7 C43.1208272,7 57,20.8791728 57,38 C57,55.1208272 43.1208272,69 26,69 C25.3280244,69 24.6610426,68.9786193 23.9996977,68.9365012 L23.9993868,52.8677469 C24.6538576,52.9549737 25.3216706,53 26,53 C34.2842712,53 41,46.2842713 41,38 C41,29.7157287 34.2842712,23 26,23 C25.3216706,23 24.6538576,23.0450263 23.9993868,23.1322531 L23.9996977,7.0634988 C24.6610426,7.02138066 25.3280244,7 26,7 Z" id="形状结合" fill="url(#linearGradient-4)"></path>
                <path d="M4,1.02211599e-13 L21,1.04945407e-13 L21,76 L4,76 C1.790861,76 -1.97533367e-09,74.209139 -1.97533367e-09,72 L1.27156596e-09,71 L5.5,71 C6.32842713,71 7,70.3284271 7,69.5 C7,68.6715729 6.32842713,68 5.5,68 L5.5,68 L1.27156596e-09,68 L1.27338495e-09,63 L5.5,63 C6.32842713,63 7,62.3284271 7,61.5 C7,60.6715729 6.32842713,60 5.5,60 L5.5,60 L1.27338495e-09,60 L1.27338495e-09,55 L5.5,55 C6.32842713,55 7,54.3284271 7,53.5 C7,52.6715729 6.32842713,52 5.5,52 L5.5,52 L1.27338495e-09,52 L1.30066979e-09,47 L11.5,47 C12.3284271,47 13,46.3284271 13,45.5 C13,44.6715729 12.3284271,44 11.5,44 L11.5,44 L1.30066979e-09,44 L1.27338495e-09,39 L5.5,39 C6.32842713,39 7,38.3284271 7,37.5 C7,36.6715729 6.32842713,36 5.5,36 L5.5,36 L1.27338495e-09,36 L1.27338495e-09,31 L5.5,31 C6.32842713,31 7,30.3284271 7,29.5 C7,28.6715729 6.32842713,28 5.5,28 L5.5,28 L1.27338495e-09,28 L1.28611788e-09,23 L5.5,23 C6.32842713,23 7,22.3284271 7,21.5 C7,20.6715729 6.32842713,20 5.5,20 L5.5,20 L1.28611788e-09,20 L1.29521283e-09,15 L5.5,15 C6.32842713,15 7,14.3284271 7,13.5 C7,12.6715729 6.32842713,12 5.5,12 L5.5,12 L1.29521283e-09,12 L1.30066979e-09,7 L11.5,7 C12.3284271,7 13,6.32842712 13,5.5 C13,4.67157288 12.3284271,4 11.5,4 L11.5,4 L1.30066979e-09,4 C-1.97532302e-09,1.790861 1.790861,1.02126884e-13 4,1.02211599e-13 Z" id="形状结合" fill="url(#linearGradient-5)"></path>
            </g>
        </g>
    </g>
</svg>