<?xml version="1.0" encoding="UTF-8"?>
<svg width="48px" height="48px" viewBox="0 0 48 48" version="1.1" xmlns="http://www.w3.org/2000/svg" xmlns:xlink="http://www.w3.org/1999/xlink">
    <!-- Generator: Sketch 62 (91390) - https://sketch.com -->
    <title>iso定制工具-48px</title>
    <desc>Created with Sketch.</desc>
    <defs>
        <filter x="-14.8%" y="-19.3%" width="131.8%" height="138.6%" filterUnits="objectBoundingBox" id="filter-1">
            <feOffset dx="0" dy="1" in="SourceAlpha" result="shadowOffsetOuter1"></feOffset>
            <feGaussianBlur stdDeviation="1" in="shadowOffsetOuter1" result="shadowBlurOuter1"></feGaussianBlur>
            <feComposite in="shadowBlurOuter1" in2="SourceAlpha" operator="out" result="shadowBlurOuter1"></feComposite>
            <feColorMatrix values="0 0 0 0 0   0 0 0 0 0   0 0 0 0 0  0 0 0 0.2 0" type="matrix" in="shadowBlurOuter1" result="shadowMatrixOuter1"></feColorMatrix>
            <feMerge>
                <feMergeNode in="shadowMatrixOuter1"></feMergeNode>
                <feMergeNode in="SourceGraphic"></feMergeNode>
            </feMerge>
        </filter>
        <linearGradient x1="50%" y1="0%" x2="50%" y2="100%" id="linearGradient-2">
            <stop stop-color="#4EFFD8" offset="0%"></stop>
            <stop stop-color="#00A29F" offset="100%"></stop>
        </linearGradient>
        <filter x="-52.2%" y="-41.4%" width="204.3%" height="182.8%" filterUnits="objectBoundingBox" id="filter-3">
            <feOffset dx="0" dy="1" in="SourceAlpha" result="shadowOffsetOuter1"></feOffset>
            <feGaussianBlur stdDeviation="2.5" in="shadowOffsetOuter1" result="shadowBlurOuter1"></feGaussianBlur>
            <feColorMatrix values="0 0 0 0 0   0 0 0 0 0.4549649   0 0 0 0 0.409478353  0 0 0 0.3 0" type="matrix" in="shadowBlurOuter1" result="shadowMatrixOuter1"></feColorMatrix>
            <feMerge>
                <feMergeNode in="shadowMatrixOuter1"></feMergeNode>
                <feMergeNode in="SourceGraphic"></feMergeNode>
            </feMerge>
        </filter>
        <linearGradient x1="50%" y1="0%" x2="50%" y2="100%" id="linearGradient-4">
            <stop stop-color="#FFFFFF" offset="0%"></stop>
            <stop stop-color="#CBFEF3" offset="100%"></stop>
        </linearGradient>
        <linearGradient x1="50%" y1="0%" x2="50%" y2="100%" id="linearGradient-5">
            <stop stop-color="#FFFFFF" offset="0%"></stop>
            <stop stop-color="#CBFEF3" offset="100%"></stop>
        </linearGradient>
    </defs>
    <g id="iso定制工具-48px" stroke="none" stroke-width="1" fill="none" fill-rule="evenodd">
        <g id="ISO镜像定制工具-256px" filter="url(#filter-1)" transform="translate(2.000000, 2.000000)" fill-rule="nonzero">
            <circle id="Oval" fill="url(#linearGradient-2)" cx="22" cy="22" r="22"></circle>
            <g id="编组" filter="url(#filter-3)" transform="translate(12.750000, 7.875000)">
                <path d="M9.25,1.125 C16.4297017,1.125 22.25,6.94529826 22.25,14.125 C22.25,21.3047017 16.4297017,27.125 9.25,27.125 C8.91357969,27.125 8.58014407,27.112221 8.25015209,27.0871219 L8.24953311,26.0838877 C8.57941855,26.1111156 8.91308783,26.125 9.25,26.125 C15.877417,26.125 21.25,20.752417 21.25,14.125 C21.25,7.49758301 15.877417,2.125 9.25,2.125 C8.91308783,2.125 8.57941855,2.13888443 8.24953311,2.1661123 L8.25015209,1.16287806 C8.58014407,1.137779 8.91357969,1.125 9.25,1.125 Z M9.25,3.125 C15.3251322,3.125 20.25,8.04986776 20.25,14.125 C20.25,20.2001322 15.3251322,25.125 9.25,25.125 C8.91283461,25.125 8.57921222,25.1098306 8.2497781,25.080137 L8.24909608,19.0247983 C8.57248621,19.0905055 8.90721479,19.125 9.25,19.125 C12.0114237,19.125 14.25,16.8864238 14.25,14.125 C14.25,11.3635763 12.0114237,9.125 9.25,9.125 C8.90721479,9.125 8.57248621,9.15949451 8.24909608,9.22520169 L8.2497781,3.16986301 C8.57921222,3.14016942 8.91283461,3.125 9.25,3.125 Z" id="形状结合" fill="url(#linearGradient-4)"></path>
                <path d="M0.25,1.125 C0.25,0.57271525 0.69771525,0.125 1.25,0.125 L7.25,0.125 L7.25,28.125 L1.25,28.125 C0.69771525,28.125 0.25,27.6772847 0.25,27.125 L0.25,25.125 L2.375,25.125 C2.65114238,25.125 2.875,24.9011424 2.875,24.625 C2.875,24.3488576 2.65114238,24.125 2.375,24.125 L2.375,24.125 L0.25,24.125 L0.25,22.125 L2.375,22.125 C2.65114238,22.125 2.875,21.9011424 2.875,21.625 C2.875,21.3488576 2.65114238,21.125 2.375,21.125 L2.375,21.125 L0.25,21.125 L0.25,19.125 L2.375,19.125 C2.65114238,19.125 2.875,18.9011424 2.875,18.625 C2.875,18.3488576 2.65114238,18.125 2.375,18.125 L2.375,18.125 L0.25,18.125 L0.25,16.125 L4.625,16.125 C4.90114238,16.125 5.125,15.9011424 5.125,15.625 C5.125,15.3488576 4.90114238,15.125 4.625,15.125 L4.625,15.125 L0.25,15.125 L0.25,13.125 L2.375,13.125 C2.65114238,13.125 2.875,12.9011424 2.875,12.625 C2.875,12.3488576 2.65114238,12.125 2.375,12.125 L2.375,12.125 L0.25,12.125 L0.25,10.125 L2.375,10.125 C2.65114238,10.125 2.875,9.90114237 2.875,9.625 C2.875,9.34885763 2.65114238,9.125 2.375,9.125 L2.375,9.125 L0.25,9.125 L0.25,7.125 L2.375,7.125 C2.65114238,7.125 2.875,6.90114237 2.875,6.625 C2.875,6.34885763 2.65114238,6.125 2.375,6.125 L2.375,6.125 L0.25,6.125 L0.25,4.125 L4.625,4.125 C4.90114238,4.125 5.125,3.90114237 5.125,3.625 C5.125,3.34885763 4.90114238,3.125 4.625,3.125 L4.625,3.125 L0.25,3.125 L0.25,1.125 Z" id="形状结合" fill="url(#linearGradient-5)"></path>
            </g>
        </g>
    </g>
</svg>