<?xml version="1.0" encoding="UTF-8"?>
<svg width="20px" height="20px" viewBox="0 0 20 20" version="1.1" xmlns="http://www.w3.org/2000/svg" xmlns:xlink="http://www.w3.org/1999/xlink">
    <!-- Generator: Sketch 62 (91390) - https://sketch.com -->
    <title>NO_inactive3</title>
    <desc>Created with Sketch.</desc>
    <g id="NO_inactive3" stroke="none" stroke-width="1" fill="none" fill-rule="evenodd">
        <g id="NO">
            <circle id="椭圆形" fill="#D6DDEA" cx="10" cy="10" r="10"></circle>
            <path d="M9.82324219,15.1308594 C10.7027995,15.1217448 11.4228516,14.8414714 11.9833984,14.2900391 C12.5530599,13.7522786 12.8424479,13.016276 12.8515625,12.0820312 C12.8515625,11.6627604 12.7626953,11.2617188 12.5849609,10.8789062 C12.398112,10.4960938 12.0950521,10.1679688 11.6757812,9.89453125 C12.0859375,9.61653646 12.3707682,9.29980469 12.5302734,8.94433594 C12.6669922,8.58886719 12.7353516,8.21972656 12.7353516,7.83691406 C12.726237,7.08040365 12.4664714,6.42415365 11.9560547,5.86816406 C11.4228516,5.2985026 10.7027995,5.00911458 9.79589844,5 C9.08040365,5.00911458 8.46516927,5.26432292 7.95019531,5.765625 C7.42610677,6.27148438 7.12760417,6.89355469 7.0546875,7.63183594 L8.48339844,7.63183594 C8.57454427,7.22167969 8.75227865,6.91861979 9.01660156,6.72265625 C9.2672526,6.52669271 9.5452474,6.42871094 9.85058594,6.42871094 C10.2744141,6.43782552 10.6207682,6.57226562 10.8896484,6.83203125 C11.1585286,7.10091146 11.297526,7.44498698 11.3066406,7.86425781 C11.3066406,8.27897135 11.1722005,8.61621094 10.9033203,8.87597656 C10.6344401,9.14485677 10.2561849,9.27929688 9.76855469,9.27929688 L9.27636719,9.27929688 L9.27636719,10.5439453 L9.87792969,10.5439453 C10.319987,10.5439453 10.6845703,10.6783854 10.9716797,10.9472656 C11.2633464,11.2252604 11.413737,11.6171875 11.4228516,12.1230469 C11.413737,12.6197917 11.2633464,13.0026042 10.9716797,13.2714844 C10.6845703,13.5585938 10.3313802,13.7021484 9.91210938,13.7021484 C9.52018229,13.7021484 9.20572917,13.5950521 8.96875,13.3808594 C8.73632812,13.1757812 8.5563151,12.906901 8.42871094,12.5742188 L7,12.5742188 C7.15494792,13.4036458 7.49446615,14.0371094 8.01855469,14.4746094 C8.54264323,14.9121094 9.14420573,15.1308594 9.82324219,15.1308594 Z" id="3" fill="#6E85B6" fill-rule="nonzero"></path>
        </g>
    </g>
</svg>