<?xml version="1.0" encoding="UTF-8"?>
<svg width="20px" height="20px" viewBox="0 0 20 20" version="1.1" xmlns="http://www.w3.org/2000/svg" xmlns:xlink="http://www.w3.org/1999/xlink">
    <!-- Generator: Sketch 62 (91390) - https://sketch.com -->
    <title>NO_active8</title>
    <desc>Created with Sketch.</desc>
    <g id="NO_active8" stroke="none" stroke-width="1" fill="none" fill-rule="evenodd">
        <g id="NO" fill="#FFFFFF">
            <circle id="椭圆形" stroke-opacity="0.4" stroke="#FFFFFF" fill-opacity="0.6" cx="10" cy="10" r="9.5"></circle>
            <path d="M10.0351562,15.1308594 C10.8873698,15.1217448 11.6074219,14.8414714 12.1953125,14.2900391 C12.7740885,13.7522786 13.0680339,13.0345052 13.0771484,12.1367188 C13.0680339,11.1751302 12.6761068,10.4277344 11.9013672,9.89453125 C12.1975911,9.63476562 12.4391276,9.33626302 12.6259766,8.99902344 C12.8037109,8.68457031 12.8925781,8.3108724 12.8925781,7.87792969 C12.8834635,7.0485026 12.6123047,6.36263021 12.0791016,5.8203125 C11.5504557,5.28255208 10.8691406,5.00911458 10.0351562,5 C9.21484375,5.00911458 8.54492188,5.28255208 8.02539062,5.8203125 C7.47395833,6.36263021 7.1936849,7.0485026 7.18457031,7.87792969 C7.18457031,8.3108724 7.28255208,8.68457031 7.47851562,8.99902344 C7.64713542,9.33626302 7.87955729,9.63476562 8.17578125,9.89453125 C7.40104167,10.4277344 7.00911458,11.1751302 7,12.1367188 C7.00911458,13.0345052 7.31217448,13.7522786 7.90917969,14.2900391 C8.47884115,14.8414714 9.1875,15.1217448 10.0351562,15.1308594 Z M10.0351562,9.27929688 C9.66601562,9.27929688 9.34016927,9.15397135 9.05761719,8.90332031 C8.77050781,8.66178385 8.62239583,8.3108724 8.61328125,7.85058594 C8.62239583,7.3766276 8.77050781,7.01888021 9.05761719,6.77734375 C9.34016927,6.54492188 9.66601562,6.42871094 10.0351562,6.42871094 C10.4179688,6.42871094 10.750651,6.54492188 11.0332031,6.77734375 C11.3111979,7.01888021 11.4547526,7.3766276 11.4638672,7.85058594 C11.4547526,8.3108724 11.3111979,8.66178385 11.0332031,8.90332031 C10.750651,9.15397135 10.4179688,9.27929688 10.0351562,9.27929688 Z M10.0351562,13.7021484 C9.59765625,13.7021484 9.22623698,13.5494792 8.92089844,13.2441406 C8.60188802,12.952474 8.43782552,12.578776 8.42871094,12.1230469 C8.43782552,11.6582031 8.60188802,11.2799479 8.92089844,10.9882812 C9.22623698,10.7011719 9.59765625,10.5530599 10.0351562,10.5439453 C10.4863281,10.5530599 10.8645833,10.7011719 11.1699219,10.9882812 C11.4798177,11.2799479 11.6393229,11.6582031 11.6484375,12.1230469 C11.6393229,12.578776 11.4798177,12.952474 11.1699219,13.2441406 C10.8645833,13.5494792 10.4863281,13.7021484 10.0351562,13.7021484 Z" id="8" fill-rule="nonzero"></path>
        </g>
    </g>
</svg>