<?xml version="1.0" encoding="UTF-8"?>
<svg width="20px" height="20px" viewBox="0 0 20 20" version="1.1" xmlns="http://www.w3.org/2000/svg" xmlns:xlink="http://www.w3.org/1999/xlink">
    <!-- Generator: Sketch 62 (91390) - https://sketch.com -->
    <title>NO_active5</title>
    <desc>Created with Sketch.</desc>
    <g id="NO_active5" stroke="none" stroke-width="1" fill="none" fill-rule="evenodd">
        <g id="NO" fill="#FFFFFF">
            <circle id="椭圆形" stroke-opacity="0.4" stroke="#FFFFFF" fill-opacity="0.6" cx="10" cy="10" r="9.5"></circle>
            <path d="M10.4121094,15.2488281 C10.9134115,15.2397135 11.3463542,15.1235026 11.7109375,14.9001953 C12.0846354,14.6860026 12.3694661,14.4490234 12.5654297,14.1892578 C12.788737,13.9249349 12.9482422,13.621875 13.0439453,13.2800781 C13.1350911,12.933724 13.1806641,12.4369792 13.1806641,11.7898437 C13.1806641,11.3705729 13.1669922,11.0173828 13.1396484,10.7302734 C13.1123047,10.4477214 13.0667318,10.2084635 13.0029297,10.0125 C12.8798828,9.65247396 12.679362,9.33574219 12.4013672,9.06230469 C12.2145182,8.85722656 11.9707031,8.68404948 11.6699219,8.54277344 C11.3509115,8.41516927 11,8.3468099 10.6171875,8.33769531 C10.0201823,8.33769531 9.48925781,8.51998698 9.02441406,8.88457031 L9.02441406,6.62871094 L12.9892578,6.62871094 L12.9892578,5.2 L7.67773438,5.2 L7.67773438,10.5867187 L9.02441406,10.5867187 C9.19303385,10.2813802 9.3844401,10.0671875 9.59863281,9.94414062 C9.81282552,9.82565104 10.0498047,9.76640625 10.3095703,9.76640625 C10.601237,9.76640625 10.8450521,9.80742187 11.0410156,9.88945312 C11.2369792,9.98971354 11.3850911,10.1241536 11.4853516,10.2927734 C11.6722005,10.6482422 11.7610677,11.1108073 11.7519531,11.6804687 C11.7519531,11.9128906 11.7473958,12.1521484 11.7382812,12.3982422 C11.7200521,12.6488932 11.6699219,12.8813151 11.5878906,13.0955078 C11.5104167,13.3097005 11.3736979,13.4828776 11.1777344,13.6150391 C10.9726562,13.7517578 10.6992188,13.8201172 10.3574219,13.8201172 C9.55989583,13.8110026 9.08365885,13.4236328 8.92871094,12.6580078 L7.5,12.6580078 C7.63671875,13.5740234 7.98990885,14.2371094 8.55957031,14.6472656 C9.12011719,15.0483073 9.73763021,15.2488281 10.4121094,15.2488281 Z" id="5" fill-rule="nonzero"></path>
        </g>
    </g>
</svg>