<?xml version="1.0" encoding="UTF-8"?>
<svg width="20px" height="20px" viewBox="0 0 20 20" version="1.1" xmlns="http://www.w3.org/2000/svg" xmlns:xlink="http://www.w3.org/1999/xlink">
    <!-- Generator: Sketch 62 (91390) - https://sketch.com -->
    <title>NO_active6</title>
    <desc>Created with Sketch.</desc>
    <g id="NO_active6" stroke="none" stroke-width="1" fill="none" fill-rule="evenodd">
        <g id="NO" fill="#FFFFFF">
            <circle id="椭圆形" stroke-opacity="0.4" stroke="#FFFFFF" fill-opacity="0.6" cx="10" cy="10" r="9.5"></circle>
            <path d="M9.83666667,14.65875 L10.0797526,14.6445312 C10.476237,14.6126302 10.8180339,14.5283203 11.1051432,14.3916016 C11.3922526,14.2548828 11.6360677,14.0919596 11.8365885,13.902832 C12.0371094,13.7137044 12.1988932,13.5131836 12.3219401,13.3012695 C12.444987,13.0893555 12.5395508,12.8911133 12.6056315,12.706543 C12.6717122,12.5219727 12.7172852,12.3624674 12.7423503,12.2280273 C12.7674154,12.0935872 12.7822266,12.0104167 12.7867839,11.9785156 C12.7913411,11.9147135 12.7947591,11.8372396 12.7970378,11.7460938 C12.7993164,11.6549479 12.8004557,11.5649414 12.8004557,11.4760742 L12.8004557,11.4760742 L12.8004557,11.0830078 C12.8004557,10.9964193 12.7879232,10.8767904 12.7628581,10.7241211 C12.737793,10.5714518 12.6933594,10.4073893 12.6295573,10.2319336 C12.5657552,10.0564779 12.4780273,9.87646484 12.3663737,9.69189453 C12.2547201,9.50732422 12.1145833,9.33984375 11.9459635,9.18945312 C11.7773437,9.0390625 11.5756836,8.91373698 11.3409831,8.81347656 C11.1062826,8.71321615 10.8317057,8.65852865 10.5172526,8.64941406 C10.2985026,8.64029948 10.105957,8.64371745 9.93961589,8.65966797 C9.77327474,8.67561849 9.62402344,8.72233073 9.49186198,8.79980469 C9.55566406,8.69042969 9.63541667,8.54459635 9.73111979,8.36230469 C9.82682292,8.18001302 9.93277995,7.97721354 10.0489909,7.75390625 C10.1652018,7.53059896 10.2859701,7.29589844 10.4112956,7.04980469 C10.5366211,6.80371094 10.659668,6.55989583 10.7804362,6.31835938 C10.9012044,6.07682292 11.016276,5.84667969 11.125651,5.62792969 C11.235026,5.40917969 11.3307292,5.21549479 11.4127604,5.046875 C11.4947917,4.87825521 11.5597331,4.74495443 11.6075846,4.64697266 C11.6554362,4.54899089 11.6770833,4.5 11.672526,4.5 L11.672526,4.5 L10.0592448,4.5 C9.6171875,5.38867188 9.21842448,6.19303385 8.86295573,6.91308594 C8.7125651,7.22298177 8.56217448,7.52832031 8.41178385,7.82910156 C8.26139323,8.12988281 8.1258138,8.40559896 8.00504557,8.65625 C7.88427734,8.90690104 7.7828776,9.11767578 7.70084635,9.28857422 C7.6188151,9.45947266 7.5686849,9.56770833 7.55045573,9.61328125 C7.47753906,9.79557292 7.41373698,9.96419271 7.35904948,10.1191406 C7.30436198,10.2740885 7.25537109,10.4313151 7.21207682,10.5908203 C7.16878255,10.7503255 7.1311849,10.917806 7.09928385,11.0932617 C7.06738281,11.2687174 7.03776042,11.468099 7.01041667,11.6914062 C6.9921875,11.8417969 6.99788411,12.0240885 7.02750651,12.2382812 C7.05712891,12.452474 7.1163737,12.6757812 7.20524089,12.9082031 C7.29410807,13.140625 7.41601562,13.3673503 7.57096354,13.5883789 C7.72591146,13.8094076 7.91959635,14.0042318 8.15201823,14.1728516 C8.3844401,14.3414714 8.66015625,14.4713542 8.97916667,14.5625 C9.29817708,14.6536458 9.66503906,14.6809896 10.0797526,14.6445312 L9.83666667,14.65875 Z M9.93619792,13.1816406 C9.68098958,13.1816406 9.4679362,13.1497396 9.29703776,13.0859375 C9.12613932,13.0221354 8.9860026,12.9401042 8.8766276,12.8398438 C8.7672526,12.7395833 8.68294271,12.6245117 8.62369792,12.4946289 C8.56445312,12.3647461 8.52229818,12.230306 8.49723307,12.0913086 C8.47216797,11.9523112 8.45735677,11.8133138 8.45279948,11.6743164 C8.44824219,11.535319 8.44596354,11.4088542 8.44596354,11.2949219 C8.44596354,11.2447917 8.45735677,11.1730143 8.48014323,11.0795898 C8.50292969,10.9861654 8.54052734,10.8847656 8.5929362,10.7753906 C8.64534505,10.6660156 8.71142578,10.5555013 8.79117839,10.4438477 C8.87093099,10.332194 8.96549479,10.2330729 9.07486979,10.1464844 C9.18424479,10.0598958 9.30957031,9.99153646 9.45084635,9.94140625 C9.5921224,9.89127604 9.74934896,9.87304688 9.92252604,9.88671875 C10.2916667,9.9140625 10.5764974,9.99609375 10.7770182,10.1328125 C10.9775391,10.2695312 11.1222331,10.4324544 11.2111003,10.621582 C11.2999674,10.8107096 11.351237,11.0100911 11.3649089,11.2197266 C11.3785807,11.429362 11.3854167,11.6207682 11.3854167,11.7939453 C11.3854167,11.8349609 11.3785807,11.8976237 11.3649089,11.9819336 C11.351237,12.0662435 11.3250326,12.1608073 11.2862956,12.265625 C11.2475586,12.3704427 11.1940104,12.4775391 11.125651,12.5869141 C11.0572917,12.6962891 10.9695638,12.7954102 10.8624674,12.8842773 C10.7553711,12.9731445 10.6254883,13.0460612 10.472819,13.1030273 C10.3201497,13.1599935 10.141276,13.1861979 9.93619792,13.1816406 Z" id="6" fill-rule="nonzero"></path>
        </g>
    </g>
</svg>