<?xml version="1.0" encoding="UTF-8"?>
<svg width="22px" height="22px" viewBox="0 0 22 22" version="1.1" xmlns="http://www.w3.org/2000/svg" xmlns:xlink="http://www.w3.org/1999/xlink">
    <!-- Generator: Sketch 62 (91390) - https://sketch.com -->
    <title>清除</title>
    <desc>Created with Sketch.</desc>
    <g id="页面1" stroke="none" stroke-width="1" fill="none" fill-rule="evenodd">
        <g id="安装器-服务器版5" transform="translate(-724.000000, -338.000000)">
            <g id="编组-6">
                <g id="编组-5" transform="translate(241.000000, 164.000000)">
                    <g id="编组-3" transform="translate(261.000000, 0.000000)">
                        <g id="entry/light备份-3" transform="translate(110.000000, 167.000000)">
                            <g id="entry" transform="translate(-0.000000, 0.000000)">
                                <g id="清除" transform="translate(112.000000, 7.000000)">
                                    <g>
                                        <circle fill="#FFFFFF" cx="11.0000013" cy="11.0000013" r="11"></circle>
                                        <path d="M7.64644661,7.64643911 C7.84170876,7.45117696 8.15829124,7.45117696 8.35355339,7.64643911 L8.35355339,7.64643911 L11,10.2929925 L13.6464466,7.64643911 C13.820013,7.47287276 14.0894374,7.45358761 14.2843055,7.58858366 L14.3535534,7.64643911 C14.5488155,7.84170126 14.5488155,8.15828374 14.3535534,8.35354589 L14.3535534,8.35354589 L11.707,10.9999925 L14.3535534,13.6464391 C14.5271197,13.8200055 14.5464049,14.0894299 14.4114088,14.284298 L14.3535534,14.3535459 C14.1582912,14.548808 13.8417088,14.548808 13.6464466,14.3535459 L13.6464466,14.3535459 L11,11.7069925 L8.35355339,14.3535459 C8.17998704,14.5271122 7.91056264,14.5463974 7.7156945,14.4114013 L7.64644661,14.3535459 C7.45118446,14.1582837 7.45118446,13.8417013 7.64644661,13.6464391 L7.64644661,13.6464391 L10.293,10.9999925 L7.64644661,8.35354589 C7.47288026,8.17997954 7.45359511,7.91055514 7.58859116,7.715687 Z" id="形状结合" fill-opacity="0.5" fill="#000000"></path>
                                    </g>
                                </g>
                            </g>
                        </g>
                    </g>
                </g>
            </g>
        </g>
    </g>
</svg>